<svg width="24" height="24" viewBox="0 0 24 24" fill="none" xmlns="http://www.w3.org/2000/svg">
<path d="M3 11L5.48 5.212C5.63432 4.852 5.89096 4.54524 6.21805 4.32978C6.54515 4.11432 6.92832 3.99965 7.32 4H16.682C17.0733 4.00004 17.4561 4.1149 17.7828 4.33033C18.1095 4.54577 18.3658 4.85231 18.52 5.212L21 11M3 11H21M3 11V18M21 11V18M18 18V18.5C18 18.8978 18.158 19.2794 18.4393 19.5607C18.7206 19.842 19.1022 20 19.5 20C19.8978 20 20.2794 19.842 20.5607 19.5607C20.842 19.2794 21 18.8978 21 18.5V18M18 18H6M18 18H21M6 18V18.5C6 18.8978 5.84196 19.2794 5.56066 19.5607C5.27936 19.842 4.89782 20 4.5 20C4.10218 20 3.72064 19.842 3.43934 19.5607C3.15804 19.2794 3 18.8978 3 18.5V18M6 18H3" stroke="black" stroke-width="2" stroke-linecap="round" stroke-linejoin="round"/>
<path fill-rule="evenodd" clip-rule="evenodd" d="M3 11H21V18H3V11ZM6 14C6 13.7348 6.10536 13.4804 6.29289 13.2929C6.48043 13.1054 6.73478 13 7 13H7.001C7.26622 13 7.52057 13.1054 7.70811 13.2929C7.89564 13.4804 8.001 13.7348 8.001 14C8.001 14.2652 7.89564 14.5196 7.70811 14.7071C7.52057 14.8946 7.26622 15 7.001 15H7C6.73478 15 6.48043 14.8946 6.29289 14.7071C6.10536 14.5196 6 14.2652 6 14ZM17 13C16.7348 13 16.4804 13.1054 16.2929 13.2929C16.1054 13.4804 16 13.7348 16 14C16 14.2652 16.1054 14.5196 16.2929 14.7071C16.4804 14.8946 16.7348 15 17 15H17.001C17.2662 15 17.5206 14.8946 17.7081 14.7071C17.8956 14.5196 18.001 14.2652 18.001 14C18.001 13.7348 17.8956 13.4804 17.7081 13.2929C17.5206 13.1054 17.2662 13 17.001 13H17Z" fill="black"/>
</svg>
