<?xml version="1.0" encoding="utf-8"?>
<!-- Generator: Adobe Illustrator 23.0.2, SVG Export Plug-In . SVG Version: 6.00 Build 0)  -->
<svg version="1.1" id="Layer_1" xmlns="http://www.w3.org/2000/svg" xmlns:xlink="http://www.w3.org/1999/xlink" x="0px" y="0px"
	 viewBox="0 0 266.4761 246.9688" enable-background="new 0 0 266.4761 246.9688" xml:space="preserve">
<g>
	<path d="M220.0278,211.1645v19.6558c0,5.1313,4.1524,9.2838,9.2881,9.2838h18.5742c5.1397,0,9.2969-4.1524,9.2969-9.2838v-19.6558
		h9.2891v-26.7969H73.5347v26.7969H220.0278z"/>
	<path d="M68.1265,26.4179c13.9502,1.7617,23.8662,14.5439,22.1055,28.4937c-0.6442,5.0967-2.7929,9.6747-5.9393,13.3508
		c3.1953,0.8381,5.8422,3.1395,7.0887,6.3382l13.6709,35.0898c1.2039,3.0895,0.8567,6.4049-0.6959,9.0788
		c13.7294-1.2019,27.0901-2.0007,38.357-2.0007c20.0139,0,46.6349,2.5214,70.1937,5.3478l18.874-79.3776l-2.0735-21.565h-168
		l-0.5134,5.3396c1.2163-0.1799,2.4509-0.2986,3.7117-0.2986C65.9751,26.2148,67.0591,26.2827,68.1265,26.4179z M181.3765,58.6484
		l-8.2969,17.0254l9.7686,0.8047l-13.962,21.3496l-0.8828-0.4028l9.6065-18.9331l-8.8272-0.1099l8.6602-21.3179L181.3765,58.6484z
		 M193.4976,93.4316l-19.2246,9.8027l-0.4786-0.664l15.0088-9.8613l-6.4355-3.7911l15.3193-12.0117l2.2207,2.8164l-13.248,9.0117
		L193.4976,93.4316z M152.5181,83.3281l-1.1436-19.1318l3.5283-0.2198L154.7748,79.75l7.6328-2.8985l-2.8379,21.0596l-0.8027,0.0112
		l0.4277-17.6772L152.5181,83.3281z"/>
	<path d="M86.7173,119.5962c0.0369,0.295,0.0781,0.5932,0.1157,0.8889c0.1841-0.0197,0.3683-0.0394,0.5526-0.0591
		C87.1526,120.1599,86.9249,119.888,86.7173,119.5962z"/>
	<path d="M142.7134,120.7685c-12.6783,0-28.0469,1.0217-43.6014,2.4921c-1.2213,0.4805-2.5286,0.7422-3.839,0.7422c0,0,0,0-0.001,0
		c-0.6345-0.0001-1.2549-0.0745-1.8654-0.1837c-2.019,0.2039-4.0353,0.4142-6.0448,0.6296
		c2.5339,18.2282,6.6614,37.0428,13.3848,48.307l2.5791,4.3213l-4.791,1.5376c-0.6605,0.212-1.337,0.3966-2.0045,0.5967h169.9459
		v-45.5858C257.6559,132.2082,185.1282,120.7685,142.7134,120.7685z M230.8901,168.8676c-8.6396,0-15.6494-7.0083-15.6494-15.6542
		c0-8.6485,7.0098-15.6583,15.6494-15.6583c8.6534,0,15.6553,7.0098,15.6553,15.6583
		C246.5453,161.8593,239.5435,168.8676,230.8901,168.8676z"/>
	<path d="M239.5151,123.1738l-6.748-70.1791l-16.5306,69.5256c16.158,1.9813,30.6092,4.0582,40.1136,5.4888l-16.6138-44.3343
		l3.7979,39.499H239.5151z"/>
	<path d="M50.4282,63.1855c2.8359,0,5.5137,0.1567,7.958,0.4653c8.3809,1.0576,16.1621,4.1377,17.0225,4.4854
		c0.6981,0.283,1.3464,0.6747,1.9596,1.1164c4.739-3.3627,8.1091-8.6226,8.8944-14.8421
		c1.4876-11.7806-6.8565-22.5366-18.6371-24.0241s-22.5366,6.8566-24.0241,18.6371c-0.6542,5.1813,0.5947,10.1634,3.2001,14.2469
		C47.9177,63.2204,49.1312,63.1855,50.4282,63.1855z"/>
	<path d="M46.2009,236.9688V182.511c-7.2149-0.722-13.9438-1.9479-20-3.5132v57.9711c0,5.5234,4.4766,10,10,10
		C41.7224,246.9688,46.2009,242.4922,46.2009,236.9688z"/>
	<path d="M60.7319,183.2378c-3.8277,0-7.5671-0.1503-11.197-0.4285v54.1595c0,5.5234,4.4756,10,10,10c5.5195,0,10-4.4766,10-10
		v-54.0245C66.6376,183.1299,63.7063,183.2378,60.7319,183.2378z"/>
	<path d="M14.9385,113.9763C8.3931,130.4186,2.2554,148.5291,0,163.1904c10.9932,12.0555,57.3042,24.455,97.3115,11.6158
		c-9.8804-16.5544-14.3247-48.1253-16.314-71.5267l8.7979,13.7292c1.8027,2.814,5.4463,3.8008,8.4199,2.2861
		c2.9775-1.5146,4.3223-5.04,3.1094-8.1523L87.6538,76.0522c-1.3027-3.3442-5.0693-5.001-8.416-3.6973
		c-0.5352,0.2082-1.0103,0.4965-1.4536,0.819c-0.3091-0.1594-0.6606-0.3325-1.061-0.5208
		c-0.6646-0.7569-1.4976-1.3537-2.4395-1.7357c-0.3271-0.1323-8.0977-3.2583-16.2734-4.29
		c-7.1436-0.9023-14.3848-0.1797-16.333,0.0483c-4.7246,0.0938-17.5586,3.6157-29.6201,35.7061
		c-1.1377,3.0269-0.8467,6.2383,0.8193,9.0439C13.417,112.3356,14.1196,113.1823,14.9385,113.9763z"/>
	<path d="M3.1038,16.7907c0.7278,1.391,1.5152,3.6447,2.3635,6.7594c0.7988,2.87,1.9378,5.4735,3.4169,7.812
		c0.9578,0.1536,2.0631-0.098,3.3163-0.7537c0.0466-0.8862-0.1501-1.7803-0.5901-2.6835c-0.5914-1.1907-1.1384-2.9074-1.6414-5.1498
		c-0.4888-2.1543-1.0674-4.4888-1.7367-7.0033c-0.6694-2.5146-1.0958-3.9472-1.2794-4.2983
		c-0.2293-0.4383-0.6693-0.7228-1.3204-0.8534c-0.6506-0.1298-1.2266-0.0641-1.7277,0.1981
		c-0.4634,0.2424-0.9028,0.7755-1.3179,1.5989c-0.4149,0.8239-0.4504,1.7244-0.107,2.7011
		C2.8239,16.0958,3.0319,16.6533,3.1038,16.7907z"/>
	<path d="M10.5912,37.0044c-0.1707,1.0468-0.105,1.8588,0.1964,2.4349c0.7999,1.5289,1.8889,1.9325,3.2674,1.2113
		c0.4634-0.2425,0.9295-0.7695,1.3985-1.5816c0.4692-0.8117,0.5436-1.6609,0.2236-2.547l-0.4215-1.2636
		c-0.1508-0.2883-0.654-0.4717-1.5093-0.551s-1.4963-0.007-1.922,0.2158C11.1727,35.264,10.7618,35.9577,10.5912,37.0044z"/>
	<path d="M17.6154,11.9036c1.7668-0.9244,2.4398-1.9863,2.0192-3.1869c-0.1079-0.3583-0.0092-0.8331,0.2966-1.4237
		c0.3051-0.5909,1.1343-1.2403,2.4877-1.9484c0.4634-0.2424,0.9667-0.4097,1.5092-0.502c0.5421-0.092,0.942-0.0897,1.2003,0.0063
		c0.2577,0.0968,0.6737,0.4579,1.2482,1.0827s0.9731,1.1506,1.196,1.5767c0.3146,0.6013,0.4822,1.2879,0.503,2.0589
		c0.0203,0.7712-0.1398,1.3657-0.4797,1.7831l-2.0162,2.3234c-1.2759,1.4659-2.1205,2.498-2.533,3.097
		c-0.413,0.5988-0.8128,1.3672-1.2006,2.3039c0.0486,1.9534,0.1145,3.2315,0.1985,3.8338c0.0836,0.6025,0.28,1.1986,0.588,1.7873
		c0.2885,0.5514,0.6656,1.0284,1.1317,1.4308c0.4658,0.4026,0.8742,0.5121,1.2249,0.3286c1.0776-0.5638,1.7603-1.1205,2.0473-1.6694
		c0.2873-0.5495,0.3228-1.1824,0.1076-1.8996c-0.3923-1.3589-0.6484-2.5656-0.7689-3.62c2.5747-2.7352,4.2402-4.6,4.9969-5.5946
		c0.7565-0.994,1.201-2.2802,1.3333-3.8574c0.1322-1.5773-0.29-3.2993-1.2668-5.1663l-0.0098-0.0189
		c-0.9101-1.6783-1.7595-2.8141-2.5483-3.4068s-2.1055-0.9888-3.9498-1.1895c-1.1285-0.1434-2.3782,0.1833-3.7487,0.9799
		c-0.7138,0.4055-1.4304,0.8044-2.1504,1.1971c-1.0272,0.5694-1.8594,1.388-2.4978,2.4558l0.0189-0.0099
		c-0.8007,1.1848-1.3428,2.3983-1.6267,3.6398c-0.2841,1.2421-0.2523,2.1949,0.0952,2.8589
		C15.5979,12.2572,16.4623,12.5068,17.6154,11.9036z"/>
	<path d="M28.1131,29.1776c-0.8365-0.1046-1.4555-0.0523-1.8564,0.1575c-0.5765,0.3016-0.9589,0.6693-1.1468,1.1027
		c-0.0601,0.1595-0.1516,0.3509-0.2739,0.574c-0.642,1.2138-0.812,2.109-0.5105,2.6851c0.3672,0.7018,0.9415,1.1437,1.7227,1.3251
		c0.7809,0.1818,1.5668,0.0662,2.3561-0.3468c0.7517-0.3932,1.4166-1.0968,1.996-2.1098c0.5791-1.0128,0.6655-1.9078,0.2589-2.6851
		C30.1415,28.8907,29.2927,28.6565,28.1131,29.1776z"/>
</g>
</svg>
