<svg width="24" height="24" viewBox="0 0 24 24" fill="none" xmlns="http://www.w3.org/2000/svg">
<path fill-rule="evenodd" clip-rule="evenodd" d="M10 2C9.37938 1.99982 8.77397 2.19206 8.26715 2.55024C7.76032 2.90842 7.37701 3.41493 7.17 4H6C5.20435 4 4.44129 4.31607 3.87868 4.87868C3.31607 5.44129 3 6.20435 3 7V19C3 19.7956 3.31607 20.5587 3.87868 21.1213C4.44129 21.6839 5.20435 22 6 22H18C18.7956 22 19.5587 21.6839 20.1213 21.1213C20.6839 20.5587 21 19.7956 21 19V7C21 6.20435 20.6839 5.44129 20.1213 4.87868C19.5587 4.31607 18.7956 4 18 4H16.83C16.623 3.41493 16.2397 2.90842 15.7329 2.55024C15.226 2.19206 14.6206 1.99982 14 2H10ZM9 5C9 4.73478 9.10536 4.48043 9.29289 4.29289C9.48043 4.10536 9.73478 4 10 4H14C14.2652 4 14.5196 4.10536 14.7071 4.29289C14.8946 4.48043 15 4.73478 15 5C15 5.26522 14.8946 5.51957 14.7071 5.70711C14.5196 5.89464 14.2652 6 14 6H10C9.73478 6 9.48043 5.89464 9.29289 5.70711C9.10536 5.51957 9 5.26522 9 5ZM15.78 11.625C15.867 11.5231 15.9326 11.4048 15.973 11.2771C16.0134 11.1494 16.0277 11.0149 16.0151 10.8815C16.0025 10.7482 15.9632 10.6187 15.8996 10.5008C15.836 10.3829 15.7494 10.279 15.6448 10.1953C15.5403 10.1115 15.42 10.0496 15.2911 10.0132C15.1622 9.97684 15.0273 9.96673 14.8944 9.9835C14.7615 10.0003 14.6333 10.0436 14.5174 10.1108C14.4016 10.1781 14.3005 10.2679 14.22 10.375L10.917 14.503L9.707 13.293C9.5184 13.1108 9.2658 13.01 9.0036 13.0123C8.7414 13.0146 8.49059 13.1198 8.30518 13.3052C8.11977 13.4906 8.0146 13.7414 8.01233 14.0036C8.01005 14.2658 8.11084 14.5184 8.293 14.707L10.293 16.707C10.3924 16.8065 10.5117 16.8839 10.6431 16.9341C10.7744 16.9843 10.9149 17.0063 11.0553 16.9986C11.1958 16.9908 11.333 16.9536 11.458 16.8892C11.5831 16.8248 11.6931 16.7348 11.781 16.625L15.781 11.625H15.78Z" fill="black"/>
</svg>
